{"title":"Savage Streets (Uncut 1984) 720p fiveofseven zombiRG","uid":12136180,"size":1505780464,"categoryP":"video","categoryS":"hd___movies","magnet":"?xt=urn:btih:72d40f546b98a4c7ee05c982d27c7810c43ca3fe&amp;dn=Savage+Streets+%28Uncut+1984%29+720p+fiveofseven+zombiRG&amp;tr=udp%3A%2F%2Ftracker.openbittorrent.com%3A80&amp;tr=udp%3A%2F%2Fopen.demonii.com%3A1337&amp;tr=udp%3A%2F%2Ftracker.coppersurfer.tk%3A6969&amp;tr=udp%3A%2F%2Fexodus.desync.com%3A6969","seeders":0,"leechers":0,"uploader":"fiveofseven","files":3,"time":1437181590,"description":"AAC 2.0 Track 1 &amp; AC3 MONO 5.1 Track 2\n\n\nPLOT - A teenage vigilante seeks revenge on a group of violent thugs \nwho raped her handicapped sister and killed her best friend.\n\n\nINFO\n\nEncoder: fiveofseven\nSource: Blu-Ray\nRating: R (Uncut)\nGenre: Action, Crime\nSubtitles: None\nPoster: https://yuq.me/users/25/564/Mun4iYBafq.jpg \n\nGeneral\nComplete name                            : Savage Streets 720p Uncut fiveofseven zombiRG.mp4\nFormat                                   : MPEG-4\nFormat profile                           : Base Media\nCodec ID                                 : isom\nFile size                                : 1.39 GiB\nDuration                                 : 1h 32mn\nOverall bit rate mode                    : Variable\nOverall bit rate                         : 2 151 Kbps\nEncoded date                             : UTC 2015-04-09 14:29:02\nTagged date                              : UTC 2015-04-10 21:50:52\nWriting application                      : My MP4Box GUI 0.6.0.6 &lt;http://my-mp4box-gui.zymichost.com&gt;\n\nVideo\nID                                       : 1\nFormat                                   : AVC\nFormat/Info                              : Advanced Video Codec\nFormat profile                           : &lt;a class=&quot;__cf_email__&quot; href=&quot;/cdn-cgi/l/email-protection&quot; data-cfemail=&quot;1b53727c735b572f352b&quot;&gt;[email&amp;#160;protected]&lt;/a&gt;&lt;script data-cfhash='f9e31' type=&quot;text/javascript&quot;&gt;\n/* &lt;![CDATA[ */!function(){try{var t=&quot;currentScript&quot;in document?document.currentScript:function(){for(var t=document.getElementsByTagName(&quot;script&quot;),e=t.length;e--;)if(t[e].getAttribute(&quot;data-cfhash&quot;))return t[e]}();if(t&amp;&amp;t.previousSibling){var e,r,n,i,c=t.previousSibling,a=c.getAttribute(&quot;data-cfemail&quot;);if(a){for(e=&quot;&quot;,r=parseInt(a.substr(0,2),16),n=2;a.length-n;n+=2)i=parseInt(a.substr(n,2),16)^r,e+=String.fromCharCode(i);e=document.createTextNode(e),c.parentNode.replaceChild(e,c)}t.parentNode.removeChild(t);}}catch(u){}}()/* ]]&gt; */&lt;/script&gt;\nFormat settings, CABAC                   : Yes\nFormat settings, ReFrames                : 7 frames\nCodec ID                                 : avc1\nCodec ID/Info                            : Advanced Video Coding\nDuration                                 : 1h 32mn\nBit rate                                 : 1 700 Kbps\nMaximum bit rate                         : 5 717 Kbps\nWidth                                    : 1 280 pixels\nHeight                                   : 720 pixels\nDisplay aspect ratio                     : 16:9\nFrame rate mode                          : Constant\nFrame rate                               : 23.976 fps\nColor space                              : YUV\nChroma subsampling                       : 4:2:0\nBit depth                                : 8 bits\nScan type                                : Progressive\nBits/(Pixel*Frame)                       : 0.077\nStream size                              : 1.10 GiB (79%)\nTitle                                    : SS720.mp4\nWriting library                          : x264 core 133 r2334 a3ac64b\nLanguage                                 : English\nEncoded date                             : UTC 2015-04-04 22:31:11\nTagged date                              : UTC 2015-04-09 14:30:25\n\nAudio #1\nID                                       : 2\nFormat                                   : AAC\nFormat/Info                              : Advanced Audio Codec\nFormat profile                           : LC\nCodec ID                                 : 40\nDuration                                 : 1h 32mn\nBit rate mode                            : Variable\nBit rate                                 : 128 Kbps\nMaximum bit rate                         : 135 Kbps\nChannel count                            : 2 channels\nChannel positions                        : Front: L R\nSampling rate                            : 48.0 KHz\nCompression mode                         : Lossy\nDelay relative to video                  : 83ms\nStream size                              : 85.0 MiB (6%)\nTitle                                    : 1 aac 2.0.mp4\nLanguage                                 : English\nEncoded date                             : UTC 2015-04-09 14:29:54\nTagged date                              : UTC 2015-04-09 14:30:25\n\nAudio #2\nID                                       : 3\nFormat                                   : AC-3\nFormat/Info                              : Audio Coding 3\nMode extension                           : CM (complete main)\nFormat settings, Endianness              : Big\nCodec ID                                 : ac-3\nDuration                                 : 1h 32mn\nBit rate mode                            : Constant\nBit rate                                 : 320 Kbps\nChannel count                            : 6 channels\nChannel positions                        : Front: L C R, Side: L R, LFE\nSampling rate                            : 48.0 KHz\nBit depth                                : 16 bits\nCompression mode                         : Lossy\nDelay relative to video                  : 83ms\nStream size                              : 212 MiB (15%)\nTitle                                    : 2 ac3 5.1.ac3\nLanguage                                 : English\nEncoded date                             : UTC 2015-04-09 14:30:00\nTagged date                              : UTC 2015-04-09 14:30:25\n\n\nScreenshots - \n  &lt;a href=&quot;\nhttps://yuq.me/users/25/564/QwScbBigUK.png&quot; rel=&quot;nofollow&quot; target=&quot;_NEW&quot;&gt;\nhttps://yuq.me/users/25/564/QwScbBigUK.png&lt;/a&gt; \n  &lt;a href=&quot;\nhttps://yuq.me/users/25/564/45KCxVQ90k.png&quot; rel=&quot;nofollow&quot; target=&quot;_NEW&quot;&gt;\nhttps://yuq.me/users/25/564/45KCxVQ90k.png&lt;/a&gt; \n  &lt;a href=&quot;\nhttps://yuq.me/users/25/564/e8u3V5LWQN.png&quot; rel=&quot;nofollow&quot; target=&quot;_NEW&quot;&gt;\nhttps://yuq.me/users/25/564/e8u3V5LWQN.png&lt;/a&gt; \n  &lt;a href=&quot;\nhttps://yuq.me/users/25/564/eI9xafUvbn.png&quot; rel=&quot;nofollow&quot; target=&quot;_NEW&quot;&gt;\nhttps://yuq.me/users/25/564/eI9xafUvbn.png&lt;/a&gt; \n \nsignature \n  &lt;a href=&quot;\nhttp://image.bayimg.com/c8522bcf3521d834bcfb712accfc58a8c9f6d9fb.jpg&quot; rel=&quot;nofollow&quot; target=&quot;_NEW&quot;&gt;\nhttp://image.bayimg.com/c8522bcf3521d834bcfb712accfc58a8c9f6d9fb.jpg&lt;/a&gt;","torrent":{"xt":"urn:btih:72d40f546b98a4c7ee05c982d27c7810c43ca3fe","amp;dn":"Savage+Streets+%28Uncut+1984%29+720p+fiveofseven+zombiRG","amp;tr":["udp%3A%2F%2Ftracker.openbittorrent.com%3A80","udp%3A%2F%2Fopen.demonii.com%3A1337","udp%3A%2F%2Ftracker.coppersurfer.tk%3A6969","udp%3A%2F%2Fexodus.desync.com%3A6969"],"infoHash":"72d40f546b98a4c7ee05c982d27c7810c43ca3fe","infoHashBuffer":{"type":"Buffer","data":[114,212,15,84,107,152,164,199,238,5,201,130,210,124,120,16,196,60,163,254]},"announce":[],"urlList":[]}}